# xmcd
#
# Track frame offsets: 
#        150
#        16409
#        34377
#        46253
#        70479
#        81867
#        91272
#        103348
#        127218
#        139106
#        155158
#        164333
#        178231
#        188467
#        193117
#        195263
#        201761
#        213492
#        224745
#        235422
#        242441
#        252442
#        266786
#        281097
#        294517
#        308031
#        321958
#        335625
#
# Disc length: 4671 seconds
#
# Revision: 0
# Processed by: cddbd v1.5.1PL0 Copyright (c) Steve Scherf et al.
# Submitted via: ExactAudioCopy v0.95b1
#
DISCID=bd123d1c
DTITLE=Mississippi Fred McDowell and Huddie Ledbetter - Delta Blues-Earl
DTITLE=y Leadbelly
DYEAR=1900
DGENRE=Blues
TTITLE0=Write Me A Few Lines
TTITLE1=Louise
TTITLE2=I Heard Somebody Call
TTITLE3=61 Highway
TTITLE4=Mama Don't Allow Me
TTITLE5=Kokomo Blues
TTITLE6=Fred's Worried Life Blues
TTITLE7=You Gonna Be Sorry
TTITLE8=Shake 'Em On Down
TTITLE9=My Trouble Blues
TTITLE10=Black Minnie
TTITLE11=That's Alright
TTITLE12=When I Lay My Burden Down
TTITLE13=Woody Intro
TTITLE14=I Ain't Going Down
TTITLE15=I Went Up On The Mountain
TTITLE16=Whoa Back
TTITLE17=Worried Blues
TTITLE18=Good Mornin' Blues
TTITLE19=You Can't Lose Me Charlie
TTITLE20=Boll Weevil
TTITLE21=Death Letter Blues
TTITLE22=Death Letter Blues (continued)
TTITLE23=Kansas City Papa
TTITLE24=Daddy I'm Coming Back To You
TTITLE25=Shorty George
TTITLE26=Yellow Jacket
TTITLE27=T.B. Woman Blues (double takes)
EXTD=
EXTT0=
EXTT1=
EXTT2=
EXTT3=
EXTT4=
EXTT5=
EXTT6=
EXTT7=
EXTT8=
EXTT9=
EXTT10=
EXTT11=
EXTT12=
EXTT13=
EXTT14=
EXTT15=
EXTT16=
EXTT17=
EXTT18=
EXTT19=
EXTT20=
EXTT21=
EXTT22=
EXTT23=
EXTT24=
EXTT25=
EXTT26=
EXTT27=
PLAYORDER=
